<svg xmlns="http://www.w3.org/2000/svg" viewBox="0 0 383.56 347.51"><defs><style>.cls-1{fill:#313131;}</style></defs><title>Asset 1</title><g id="Layer_2" data-name="Layer 2"><g id="Layer_1-2" data-name="Layer 1"><path class="cls-1" d="M191.7,347.45H25.26c-9.91,0-17.36-4.39-22.11-12.92-4.61-8.27-4-16.7.88-24.7,4.54-7.38,11.53-10.81,20-11.49,2.15-.18,4.32-.19,6.49-.19q161.44,0,322.88,0a66.28,66.28,0,0,1,9.45.62c12.27,1.78,21.43,12.89,20.68,24.91-.8,12.95-10.82,23.22-23.38,23.67-6.82.25-13.66.08-20.49.08Z"/><path class="cls-1" d="M191.64,49.38q-82.71,0-165.42,0C11,49.34-.22,38.21.21,23.76.58,11.12,10.56,1.24,24.13.09,25.29,0,26.46,0,27.63,0Q192.3,0,357,0c13.17,0,22.53,6.73,25.55,18.17,4.18,15.86-7.24,30.94-24,31.14-19.33.23-38.65.06-58,.06Z"/><path class="cls-1" d="M154.9,149.8q64.74,0,129.49,0c12.58,0,22.85,8.89,24.31,20.78,1.58,12.86-5.91,24.09-18.31,27.22a28.56,28.56,0,0,1-6.92.65q-129,0-258,0C10.81,198.48.12,188,.19,173.93.27,160.12,11,149.82,25.41,149.81Q90.15,149.75,154.9,149.8Z"/></g></g></svg>